<svg width="156" height="156" viewBox="0 0 156 156" fill="none" xmlns="http://www.w3.org/2000/svg">
<rect width="156" height="156" rx="78" fill="#1E4FD8"/>
<path d="M46.408 111.068C46.408 110.812 46.6 110.652 46.984 110.588L51.064 109.964C51.672 109.836 52.104 109.66 52.36 109.436C52.648 109.212 52.792 108.892 52.792 108.476V47.42C52.792 46.94 52.648 46.588 52.36 46.364C52.104 46.14 51.672 45.964 51.064 45.836L46.936 45.212C46.584 45.148 46.408 44.972 46.408 44.684C46.408 44.556 46.456 44.46 46.552 44.396C46.648 44.332 46.792 44.3 46.984 44.3H70.36C76.152 44.3 81.432 45.148 86.2 46.844C91 48.508 95.128 50.956 98.584 54.188C102.072 57.388 104.76 61.292 106.648 65.9C108.536 70.476 109.48 75.66 109.48 81.452C109.48 87.756 108.056 93.148 105.208 97.628C102.36 102.108 98.376 105.548 93.256 107.948C88.136 110.316 82.136 111.5 75.256 111.5H46.984C46.792 111.5 46.648 111.468 46.552 111.404C46.456 111.308 46.408 111.196 46.408 111.068ZM75.16 110.348C79.032 110.348 82.488 109.308 85.528 107.228C88.568 105.116 90.952 101.836 92.68 97.388C94.408 92.908 95.272 87.132 95.272 80.06C95.272 74.492 94.712 69.564 93.592 65.276C92.472 60.956 90.824 57.324 88.648 54.38C86.472 51.436 83.832 49.212 80.728 47.708C77.656 46.204 74.168 45.452 70.264 45.452H66.28V108.428C66.28 109.036 66.456 109.516 66.808 109.868C67.192 110.188 67.704 110.348 68.344 110.348H75.16Z" fill="white"/>
</svg>
